<svg xmlns="http://www.w3.org/2000/svg" width="28" height="28" viewBox="0 0 28 28">
  <g id="gallery_1_" data-name="gallery (1)" transform="translate(-2 -2)">
    <path id="패스_222" data-name="패스 222" d="M24.823,2H7.177A5.182,5.182,0,0,0,2,7.177V24.823A5.182,5.182,0,0,0,7.177,30H24.823c.04,0,.077-.011.117-.012A.58.58,0,0,0,25,30a1.056,1.056,0,0,0,.191-.037A5.168,5.168,0,0,0,30,24.823V7.177A5.182,5.182,0,0,0,24.823,2ZM7.177,4H24.823A3.18,3.18,0,0,1,28,7.177V20.786l-4.493-4.493a1,1,0,0,0-1.414,0L17.9,20.486,9.207,11.793a1,1,0,0,0-1.414,0L4,15.586V7.177A3.18,3.18,0,0,1,7.177,4ZM4,24.823V18.414l4.5-4.5L22.586,28H7.177A3.18,3.18,0,0,1,4,24.823Zm21.36,3.123L19.314,21.9,22.8,18.414l5.2,5.2v1.209a3.177,3.177,0,0,1-2.64,3.123Z" fill="#444"/>
    <path id="패스_223" data-name="패스 223" d="M22.5,13A3.5,3.5,0,1,0,19,9.5,3.5,3.5,0,0,0,22.5,13Zm0-5A1.5,1.5,0,1,1,21,9.5,1.5,1.5,0,0,1,22.5,8Z" fill="#444"/>
  </g>
</svg>
