<svg xmlns="http://www.w3.org/2000/svg" width="22" height="22" viewBox="0 0 22 22">
  <g id="ico-ringing" transform="translate(2 3)">
    <rect id="사각형_144" data-name="사각형 144" width="22" height="22" transform="translate(-2 -3)" fill="none"/>
    <g id="그룹_128" data-name="그룹 128" transform="translate(1)">
      <path id="패스_213" data-name="패스 213" d="M20.411,7.2a.637.637,0,0,1-.636-.636,6.639,6.639,0,0,0-1.957-4.725.636.636,0,1,1,.9-.9,7.9,7.9,0,0,1,2.33,5.625A.637.637,0,0,1,20.411,7.2Z" transform="translate(-6.048 -0.273)" fill="#fff"/>
      <path id="패스_214" data-name="패스 214" d="M1.636,7.2A.637.637,0,0,1,1,6.561,7.9,7.9,0,0,1,3.33.936a.636.636,0,1,1,.9.9A6.638,6.638,0,0,0,2.273,6.561a.637.637,0,0,1-.636.636Z" transform="translate(0 -0.273)" fill="#fff"/>
      <path id="패스_215" data-name="패스 215" d="M14.332,10.763A4.262,4.262,0,0,1,12.818,7.5V5.727A4.458,4.458,0,0,0,9,1.324V.636a.636.636,0,0,0-1.273,0v.687a4.457,4.457,0,0,0-3.818,4.4V7.5a4.267,4.267,0,0,1-1.52,3.266,1.113,1.113,0,0,0,.724,1.959h10.5a1.114,1.114,0,0,0,.718-1.964Z" transform="translate(-0.364 0)" fill="#fff"/>
      <path id="패스_216" data-name="패스 216" d="M10.664,22.909A2.39,2.39,0,0,0,13,21H8.326A2.39,2.39,0,0,0,10.664,22.909Z" transform="translate(-2.664 -7.637)" fill="#fff"/>
    </g>
  </g>
</svg>
