<svg id="file" xmlns="http://www.w3.org/2000/svg" width="17.742" height="17.812" viewBox="0 0 17.742 17.812">
  <path id="패스_231" data-name="패스 231" d="M5.7,242a4.7,4.7,0,1,0,4.7,4.7A4.7,4.7,0,0,0,5.7,242Zm2.074,4.126-2.435,2.435a.522.522,0,0,1-.738,0l-1.044-1.044a.522.522,0,0,1,.738-.738l.675.675,2.066-2.066a.522.522,0,1,1,.738.738Z" transform="translate(-1 -233.581)" fill="#fff"/>
  <path id="패스_232" data-name="패스 232" d="M130.567,4.522A.522.522,0,0,1,130.045,4V0h-7.479A1.567,1.567,0,0,0,121,1.565V7.4c.172-.016.346-.024.522-.024a5.731,5.731,0,0,1,4.425,2.087h5.664a.522.522,0,1,1,0,1.044h-4.976a5.7,5.7,0,0,1,.6,2.087h4.372a.522.522,0,1,1,0,1.044h-4.372a5.742,5.742,0,0,1-2.42,4.175H133a1.567,1.567,0,0,0,1.565-1.565V4.522Zm1.044,2.853h-7.653a.522.522,0,0,1,0-1.044h7.653a.522.522,0,1,1,0,1.044Z" transform="translate(-116.825)" fill="#fff"/>
  <path id="패스_233" data-name="패스 233" d="M411,8.783v3.173h3.173Z" transform="translate(-396.737 -8.477)" fill="#fff"/>
</svg>
